<svg width="945" height="301" viewBox="0 0 945 301" fill="none" xmlns="http://www.w3.org/2000/svg">
<g clip-path="url(#clip0_12_12)">
<path d="M20.334 89.0959C19.8281 85.7799 19.8281 82.4063 20.334 79.0903C21.553 71.1798 25.3758 65.8708 28.334 61.7626C31.7033 57.0679 35.8163 52.9549 40.511 49.5856C44.8816 46.5662 49.6445 44.1585 54.6674 42.4292C60.2764 40.3037 66.0827 38.7405 72.0007 37.7626C78.8277 36.564 85.7372 35.8953 92.6674 35.7626C93.8688 35.7161 93.0332 35.7593 113.337 35.7626C118.225 35.7633 123.113 35.7633 128.001 35.7626H225.007" stroke="#31AF99" stroke-width="26" stroke-miterlimit="10" stroke-linecap="round"/>
<path d="M122 140.096V38.3989" stroke="#31AF99" stroke-width="26" stroke-miterlimit="10" stroke-linecap="round"/>
<path d="M13 196.435C14.7409 198.734 17.2079 201.865 20.3334 205.435C24.9282 210.932 30.0041 216.008 35.501 220.603C41.6588 225.554 49.9537 232.224 62.3334 234.435C70.7961 235.947 77.4922 234.718 82.6667 233.768C91.8861 231.922 100.695 228.421 108.667 223.435C114.697 219.728 119.213 215.58 128 207.435C134.498 201.412 136.651 198.956 147.768 187.667C147.772 187.663 147.766 187.669 172.568 162.867C179.547 155.889 186.525 148.91 193.504 141.931L209.421 126.014" stroke="#31AF99" stroke-width="26" stroke-miterlimit="10" stroke-linecap="round"/>
<path d="M252.814 54.006V35.526C252.814 31.83 254.662 29.982 258.358 29.982H331.354C335.05 29.982 336.898 31.83 336.898 35.526V54.006C336.898 57.702 335.05 59.55 331.354 59.55H311.642V133.47C311.642 137.166 309.794 139.014 306.098 139.014H283.614C279.918 139.014 278.07 137.166 278.07 133.47V59.55H258.358C254.662 59.55 252.814 57.702 252.814 54.006ZM381.534 80.494H392.622C397.396 80.494 400.784 79.57 402.94 77.722C405.096 75.874 406.174 73.102 406.174 69.098C406.174 64.786 405.096 61.706 403.094 60.166C400.938 58.626 397.55 57.702 392.622 57.702H381.534V80.494ZM353.814 29.982H393.084C408.484 29.982 420.188 33.062 428.042 39.068C435.742 45.074 439.746 55.084 439.746 69.098C439.746 84.652 433.124 95.432 420.034 101.592L438.514 132.084C439.592 133.932 439.9 135.626 439.284 137.012C438.668 138.398 437.282 139.014 435.434 139.014H412.95C409.562 139.014 406.944 137.628 405.25 134.548L389.388 106.674H381.534V133.47C381.534 137.166 379.686 139.014 375.99 139.014H353.814C350.118 139.014 348.27 137.166 348.27 133.47V35.526C348.27 31.83 350.118 29.982 353.814 29.982ZM490.048 94.662H508.682L499.904 62.938H499.442L490.048 94.662ZM485.736 29.982H513.456C516.69 29.982 518.846 31.676 520.078 34.91L551.956 132.392C552.572 134.394 552.572 135.934 551.802 137.166C550.878 138.398 549.646 139.014 547.798 139.014H524.39C520.694 139.014 518.538 137.32 517.614 133.932L514.226 122.074H484.812L481.578 133.932C480.654 137.32 478.344 139.014 474.802 139.014H451.394C449.546 139.014 448.16 138.398 447.39 137.166C446.466 135.934 446.466 134.394 447.236 132.392L479.114 34.91C480.192 31.676 482.348 29.982 485.736 29.982ZM601.861 139.014H567.519C563.823 139.014 561.975 137.166 561.975 133.47V35.526C561.975 31.83 563.823 29.982 567.519 29.982H601.861C619.879 29.982 633.277 34.448 642.055 43.072C650.833 51.85 655.299 65.71 655.299 84.498C655.299 103.44 650.833 117.3 642.055 125.924C633.277 134.702 619.879 139.014 601.861 139.014ZM600.321 58.934H595.547V110.062H600.321C607.713 110.062 613.103 108.368 616.491 104.672C619.725 100.976 621.419 94.354 621.419 84.498C621.419 74.796 619.725 68.174 616.491 64.478C613.103 60.782 607.713 58.934 600.321 58.934ZM736.208 96.972H701.558V111.294H739.442C743.138 111.294 744.986 113.142 744.986 116.838V133.47C744.986 137.166 743.138 139.014 739.442 139.014H674.146C670.45 139.014 668.602 137.166 668.602 133.47V35.526C668.602 31.83 670.45 29.982 674.146 29.982H738.518C742.214 29.982 744.062 31.83 744.062 35.526V52.158C744.062 55.854 742.214 57.702 738.518 57.702H701.558V70.484H736.208C739.75 70.484 741.598 72.332 741.598 76.028V91.582C741.598 95.278 739.75 96.972 736.208 96.972Z" fill="#1C1C1C"/>
<path d="M252.814 172.006V153.526C252.814 149.83 254.662 147.982 258.358 147.982H331.354C335.05 147.982 336.898 149.83 336.898 153.526V172.006C336.898 175.702 335.05 177.55 331.354 177.55H311.642V251.47C311.642 255.166 309.794 257.014 306.098 257.014H283.614C279.918 257.014 278.07 255.166 278.07 251.47V177.55H258.358C254.662 177.55 252.814 175.702 252.814 172.006ZM381.534 198.494H392.622C397.396 198.494 400.784 197.57 402.94 195.722C405.096 193.874 406.174 191.102 406.174 187.098C406.174 182.786 405.096 179.706 403.094 178.166C400.938 176.626 397.55 175.702 392.622 175.702H381.534V198.494ZM353.814 147.982H393.084C408.484 147.982 420.188 151.062 428.042 157.068C435.742 163.074 439.746 173.084 439.746 187.098C439.746 202.652 433.124 213.432 420.034 219.592L438.514 250.084C439.592 251.932 439.9 253.626 439.284 255.012C438.668 256.398 437.282 257.014 435.434 257.014H412.95C409.562 257.014 406.944 255.628 405.25 252.548L389.388 224.674H381.534V251.47C381.534 255.166 379.686 257.014 375.99 257.014H353.814C350.118 257.014 348.27 255.166 348.27 251.47V153.526C348.27 149.83 350.118 147.982 353.814 147.982ZM490.048 212.662H508.682L499.904 180.938H499.442L490.048 212.662ZM485.736 147.982H513.456C516.69 147.982 518.846 149.676 520.078 152.91L551.956 250.392C552.572 252.394 552.572 253.934 551.802 255.166C550.878 256.398 549.646 257.014 547.798 257.014H524.39C520.694 257.014 518.538 255.32 517.614 251.932L514.226 240.074H484.812L481.578 251.932C480.654 255.32 478.344 257.014 474.802 257.014H451.394C449.546 257.014 448.16 256.398 447.39 255.166C446.466 253.934 446.466 252.394 447.236 250.392L479.114 152.91C480.192 149.676 482.348 147.982 485.736 147.982ZM613.197 229.91C618.279 229.91 623.361 228.986 628.443 226.83C630.445 226.06 631.985 225.906 633.217 226.214C634.449 226.522 635.373 227.6 636.297 229.294L642.765 243.154C643.381 245.002 643.535 246.542 643.227 247.466C642.765 248.39 641.687 249.468 639.993 250.546C631.677 256.09 620.897 258.862 607.653 258.862C591.175 258.862 578.393 254.396 569.153 245.156C559.913 235.916 555.293 221.748 555.293 202.498C555.293 183.248 559.759 169.08 568.845 159.84C577.777 150.754 590.559 146.134 606.883 146.134C619.819 146.134 630.445 148.906 638.761 154.296C640.455 155.528 641.533 156.606 641.995 157.53C642.303 158.454 642.149 159.84 641.533 161.688L635.219 175.394C634.449 177.242 633.525 178.32 632.293 178.628C631.061 178.936 629.367 178.782 627.365 177.858C622.745 176.01 617.817 175.086 612.581 175.086C604.111 175.086 598.105 177.242 594.563 181.246C591.021 185.404 589.327 192.488 589.327 202.498C589.327 212.508 591.175 219.592 594.871 223.75C598.567 227.908 604.573 229.91 613.197 229.91ZM689.391 185.404L712.029 153.064C714.339 149.676 717.111 147.982 720.191 147.982H744.215C746.063 147.982 747.141 148.752 747.757 150.138C748.373 151.678 748.065 153.218 746.833 154.912L715.263 198.956L747.603 250.084C748.681 251.932 748.989 253.472 748.373 254.858C747.757 256.398 746.525 257.014 744.677 257.014H720.653C717.419 257.014 714.801 255.32 712.799 251.932L689.391 214.356V251.47C689.391 255.166 687.543 257.014 683.847 257.014H661.363C657.667 257.014 655.819 255.166 655.819 251.47V153.526C655.819 149.83 657.667 147.982 661.363 147.982H683.847C687.543 147.982 689.391 149.83 689.391 153.526V185.404ZM825.991 214.972H791.341V229.294H829.225C832.921 229.294 834.769 231.142 834.769 234.838V251.47C834.769 255.166 832.921 257.014 829.225 257.014H763.929C760.233 257.014 758.385 255.166 758.385 251.47V153.526C758.385 149.83 760.233 147.982 763.929 147.982H828.301C831.997 147.982 833.845 149.83 833.845 153.526V170.158C833.845 173.854 831.997 175.702 828.301 175.702H791.341V188.484H825.991C829.533 188.484 831.381 190.332 831.381 194.028V209.582C831.381 213.278 829.533 214.972 825.991 214.972ZM881.282 198.494H892.37C897.144 198.494 900.532 197.57 902.688 195.722C904.844 193.874 905.922 191.102 905.922 187.098C905.922 182.786 904.844 179.706 902.842 178.166C900.686 176.626 897.298 175.702 892.37 175.702H881.282V198.494ZM853.562 147.982H892.832C908.232 147.982 919.936 151.062 927.79 157.068C935.49 163.074 939.494 173.084 939.494 187.098C939.494 202.652 932.872 213.432 919.782 219.592L938.262 250.084C939.34 251.932 939.648 253.626 939.032 255.012C938.416 256.398 937.03 257.014 935.182 257.014H912.698C909.31 257.014 906.692 255.628 904.998 252.548L889.136 224.674H881.282V251.47C881.282 255.166 879.434 257.014 875.738 257.014H853.562C849.866 257.014 848.018 255.166 848.018 251.47V153.526C848.018 149.83 849.866 147.982 853.562 147.982Z" fill="#1C1C1C"/>
</g>
<defs>
<clipPath id="clip0_12_12">
<rect width="944.573" height="300.179" fill="white" transform="translate(0 0.5)"/>
</clipPath>
</defs>
</svg>
