<svg width="958" height="301" viewBox="0 0 958 301" fill="none" xmlns="http://www.w3.org/2000/svg">
<g clip-path="url(#clip0_12_2)">
<path d="M265.839 53.506V35.026C265.839 31.33 267.687 29.482 271.383 29.482H344.379C348.075 29.482 349.923 31.33 349.923 35.026V53.506C349.923 57.202 348.075 59.05 344.379 59.05H324.667V132.97C324.667 136.666 322.819 138.514 319.123 138.514H296.639C292.943 138.514 291.095 136.666 291.095 132.97V59.05H271.383C267.687 59.05 265.839 57.202 265.839 53.506ZM394.559 79.994H405.647C410.421 79.994 413.809 79.07 415.965 77.222C418.121 75.374 419.199 72.602 419.199 68.598C419.199 64.286 418.121 61.206 416.119 59.666C413.963 58.126 410.575 57.202 405.647 57.202H394.559V79.994ZM366.839 29.482H406.109C421.509 29.482 433.213 32.562 441.067 38.568C448.767 44.574 452.771 54.584 452.771 68.598C452.771 84.152 446.149 94.932 433.059 101.092L451.539 131.584C452.617 133.432 452.925 135.126 452.309 136.512C451.693 137.898 450.307 138.514 448.459 138.514H425.975C422.587 138.514 419.969 137.128 418.275 134.048L402.413 106.174H394.559V132.97C394.559 136.666 392.711 138.514 389.015 138.514H366.839C363.143 138.514 361.295 136.666 361.295 132.97V35.026C361.295 31.33 363.143 29.482 366.839 29.482ZM503.073 94.162H521.707L512.929 62.438H512.467L503.073 94.162ZM498.761 29.482H526.481C529.715 29.482 531.871 31.176 533.103 34.41L564.981 131.892C565.597 133.894 565.597 135.434 564.827 136.666C563.903 137.898 562.671 138.514 560.823 138.514H537.415C533.719 138.514 531.563 136.82 530.639 133.432L527.251 121.574H497.837L494.603 133.432C493.679 136.82 491.369 138.514 487.827 138.514H464.419C462.571 138.514 461.185 137.898 460.415 136.666C459.491 135.434 459.491 133.894 460.261 131.892L492.139 34.41C493.217 31.176 495.373 29.482 498.761 29.482ZM614.886 138.514H580.544C576.848 138.514 575 136.666 575 132.97V35.026C575 31.33 576.848 29.482 580.544 29.482H614.886C632.904 29.482 646.302 33.948 655.08 42.572C663.858 51.35 668.324 65.21 668.324 83.998C668.324 102.94 663.858 116.8 655.08 125.424C646.302 134.202 632.904 138.514 614.886 138.514ZM613.346 58.434H608.572V109.562H613.346C620.738 109.562 626.128 107.868 629.516 104.172C632.75 100.476 634.444 93.854 634.444 83.998C634.444 74.296 632.75 67.674 629.516 63.978C626.128 60.282 620.738 58.434 613.346 58.434ZM749.233 96.472H714.583V110.794H752.467C756.163 110.794 758.011 112.642 758.011 116.338V132.97C758.011 136.666 756.163 138.514 752.467 138.514H687.171C683.475 138.514 681.627 136.666 681.627 132.97V35.026C681.627 31.33 683.475 29.482 687.171 29.482H751.543C755.239 29.482 757.087 31.33 757.087 35.026V51.658C757.087 55.354 755.239 57.202 751.543 57.202H714.583V69.984H749.233C752.775 69.984 754.623 71.832 754.623 75.528V91.082C754.623 94.778 752.775 96.472 749.233 96.472Z" fill="white"/>
<path d="M265.839 171.506V153.026C265.839 149.33 267.687 147.482 271.383 147.482H344.379C348.075 147.482 349.923 149.33 349.923 153.026V171.506C349.923 175.202 348.075 177.05 344.379 177.05H324.667V250.97C324.667 254.666 322.819 256.514 319.123 256.514H296.639C292.943 256.514 291.095 254.666 291.095 250.97V177.05H271.383C267.687 177.05 265.839 175.202 265.839 171.506ZM394.559 197.994H405.647C410.421 197.994 413.809 197.07 415.965 195.222C418.121 193.374 419.199 190.602 419.199 186.598C419.199 182.286 418.121 179.206 416.119 177.666C413.963 176.126 410.575 175.202 405.647 175.202H394.559V197.994ZM366.839 147.482H406.109C421.509 147.482 433.213 150.562 441.067 156.568C448.767 162.574 452.771 172.584 452.771 186.598C452.771 202.152 446.149 212.932 433.059 219.092L451.539 249.584C452.617 251.432 452.925 253.126 452.309 254.512C451.693 255.898 450.307 256.514 448.459 256.514H425.975C422.587 256.514 419.969 255.128 418.275 252.048L402.413 224.174H394.559V250.97C394.559 254.666 392.711 256.514 389.015 256.514H366.839C363.143 256.514 361.295 254.666 361.295 250.97V153.026C361.295 149.33 363.143 147.482 366.839 147.482ZM503.073 212.162H521.707L512.929 180.438H512.467L503.073 212.162ZM498.761 147.482H526.481C529.715 147.482 531.871 149.176 533.103 152.41L564.981 249.892C565.597 251.894 565.597 253.434 564.827 254.666C563.903 255.898 562.671 256.514 560.823 256.514H537.415C533.719 256.514 531.563 254.82 530.639 251.432L527.251 239.574H497.837L494.603 251.432C493.679 254.82 491.369 256.514 487.827 256.514H464.419C462.571 256.514 461.185 255.898 460.415 254.666C459.491 253.434 459.491 251.894 460.261 249.892L492.139 152.41C493.217 149.176 495.373 147.482 498.761 147.482ZM626.222 229.41C631.304 229.41 636.386 228.486 641.468 226.33C643.47 225.56 645.01 225.406 646.242 225.714C647.474 226.022 648.398 227.1 649.322 228.794L655.79 242.654C656.406 244.502 656.56 246.042 656.252 246.966C655.79 247.89 654.712 248.968 653.018 250.046C644.702 255.59 633.922 258.362 620.678 258.362C604.2 258.362 591.418 253.896 582.178 244.656C572.938 235.416 568.318 221.248 568.318 201.998C568.318 182.748 572.784 168.58 581.87 159.34C590.802 150.254 603.584 145.634 619.908 145.634C632.844 145.634 643.47 148.406 651.786 153.796C653.48 155.028 654.558 156.106 655.02 157.03C655.328 157.954 655.174 159.34 654.558 161.188L648.244 174.894C647.474 176.742 646.55 177.82 645.318 178.128C644.086 178.436 642.392 178.282 640.39 177.358C635.77 175.51 630.842 174.586 625.606 174.586C617.136 174.586 611.13 176.742 607.588 180.746C604.046 184.904 602.352 191.988 602.352 201.998C602.352 212.008 604.2 219.092 607.896 223.25C611.592 227.408 617.598 229.41 626.222 229.41ZM702.415 184.904L725.053 152.564C727.363 149.176 730.135 147.482 733.215 147.482H757.239C759.087 147.482 760.165 148.252 760.781 149.638C761.397 151.178 761.089 152.718 759.857 154.412L728.287 198.456L760.627 249.584C761.705 251.432 762.013 252.972 761.397 254.358C760.781 255.898 759.549 256.514 757.701 256.514H733.677C730.443 256.514 727.825 254.82 725.823 251.432L702.415 213.856V250.97C702.415 254.666 700.567 256.514 696.871 256.514H674.387C670.691 256.514 668.843 254.666 668.843 250.97V153.026C668.843 149.33 670.691 147.482 674.387 147.482H696.871C700.567 147.482 702.415 149.33 702.415 153.026V184.904ZM839.016 214.472H804.366V228.794H842.25C845.946 228.794 847.794 230.642 847.794 234.338V250.97C847.794 254.666 845.946 256.514 842.25 256.514H776.954C773.258 256.514 771.41 254.666 771.41 250.97V153.026C771.41 149.33 773.258 147.482 776.954 147.482H841.326C845.022 147.482 846.87 149.33 846.87 153.026V169.658C846.87 173.354 845.022 175.202 841.326 175.202H804.366V187.984H839.016C842.558 187.984 844.406 189.832 844.406 193.528V209.082C844.406 212.778 842.558 214.472 839.016 214.472ZM894.307 197.994H905.395C910.169 197.994 913.557 197.07 915.713 195.222C917.869 193.374 918.947 190.602 918.947 186.598C918.947 182.286 917.869 179.206 915.867 177.666C913.711 176.126 910.323 175.202 905.395 175.202H894.307V197.994ZM866.587 147.482H905.857C921.257 147.482 932.961 150.562 940.815 156.568C948.515 162.574 952.519 172.584 952.519 186.598C952.519 202.152 945.897 212.932 932.807 219.092L951.287 249.584C952.365 251.432 952.673 253.126 952.057 254.512C951.441 255.898 950.055 256.514 948.207 256.514H925.723C922.335 256.514 919.717 255.128 918.023 252.048L902.161 224.174H894.307V250.97C894.307 254.666 892.459 256.514 888.763 256.514H866.587C862.891 256.514 861.043 254.666 861.043 250.97V153.026C861.043 149.33 862.891 147.482 866.587 147.482Z" fill="white"/>
<path d="M265.839 53.506V35.026C265.839 31.33 267.687 29.482 271.383 29.482H344.379C348.075 29.482 349.923 31.33 349.923 35.026V53.506C349.923 57.202 348.075 59.05 344.379 59.05H324.667V132.97C324.667 136.666 322.819 138.514 319.123 138.514H296.639C292.943 138.514 291.095 136.666 291.095 132.97V59.05H271.383C267.687 59.05 265.839 57.202 265.839 53.506ZM394.559 79.994H405.647C410.421 79.994 413.809 79.07 415.965 77.222C418.121 75.374 419.199 72.602 419.199 68.598C419.199 64.286 418.121 61.206 416.119 59.666C413.963 58.126 410.575 57.202 405.647 57.202H394.559V79.994ZM366.839 29.482H406.109C421.509 29.482 433.213 32.562 441.067 38.568C448.767 44.574 452.771 54.584 452.771 68.598C452.771 84.152 446.149 94.932 433.059 101.092L451.539 131.584C452.617 133.432 452.925 135.126 452.309 136.512C451.693 137.898 450.307 138.514 448.459 138.514H425.975C422.587 138.514 419.969 137.128 418.275 134.048L402.413 106.174H394.559V132.97C394.559 136.666 392.711 138.514 389.015 138.514H366.839C363.143 138.514 361.295 136.666 361.295 132.97V35.026C361.295 31.33 363.143 29.482 366.839 29.482ZM503.073 94.162H521.707L512.929 62.438H512.467L503.073 94.162ZM498.761 29.482H526.481C529.715 29.482 531.871 31.176 533.103 34.41L564.981 131.892C565.597 133.894 565.597 135.434 564.827 136.666C563.903 137.898 562.671 138.514 560.823 138.514H537.415C533.719 138.514 531.563 136.82 530.639 133.432L527.251 121.574H497.837L494.603 133.432C493.679 136.82 491.369 138.514 487.827 138.514H464.419C462.571 138.514 461.185 137.898 460.415 136.666C459.491 135.434 459.491 133.894 460.261 131.892L492.139 34.41C493.217 31.176 495.373 29.482 498.761 29.482ZM614.886 138.514H580.544C576.848 138.514 575 136.666 575 132.97V35.026C575 31.33 576.848 29.482 580.544 29.482H614.886C632.904 29.482 646.302 33.948 655.08 42.572C663.858 51.35 668.324 65.21 668.324 83.998C668.324 102.94 663.858 116.8 655.08 125.424C646.302 134.202 632.904 138.514 614.886 138.514ZM613.346 58.434H608.572V109.562H613.346C620.738 109.562 626.128 107.868 629.516 104.172C632.75 100.476 634.444 93.854 634.444 83.998C634.444 74.296 632.75 67.674 629.516 63.978C626.128 60.282 620.738 58.434 613.346 58.434ZM749.233 96.472H714.583V110.794H752.467C756.163 110.794 758.011 112.642 758.011 116.338V132.97C758.011 136.666 756.163 138.514 752.467 138.514H687.171C683.475 138.514 681.627 136.666 681.627 132.97V35.026C681.627 31.33 683.475 29.482 687.171 29.482H751.543C755.239 29.482 757.087 31.33 757.087 35.026V51.658C757.087 55.354 755.239 57.202 751.543 57.202H714.583V69.984H749.233C752.775 69.984 754.623 71.832 754.623 75.528V91.082C754.623 94.778 752.775 96.472 749.233 96.472Z" fill="white"/>
<path d="M265.839 171.506V153.026C265.839 149.33 267.687 147.482 271.383 147.482H344.379C348.075 147.482 349.923 149.33 349.923 153.026V171.506C349.923 175.202 348.075 177.05 344.379 177.05H324.667V250.97C324.667 254.666 322.819 256.514 319.123 256.514H296.639C292.943 256.514 291.095 254.666 291.095 250.97V177.05H271.383C267.687 177.05 265.839 175.202 265.839 171.506ZM394.559 197.994H405.647C410.421 197.994 413.809 197.07 415.965 195.222C418.121 193.374 419.199 190.602 419.199 186.598C419.199 182.286 418.121 179.206 416.119 177.666C413.963 176.126 410.575 175.202 405.647 175.202H394.559V197.994ZM366.839 147.482H406.109C421.509 147.482 433.213 150.562 441.067 156.568C448.767 162.574 452.771 172.584 452.771 186.598C452.771 202.152 446.149 212.932 433.059 219.092L451.539 249.584C452.617 251.432 452.925 253.126 452.309 254.512C451.693 255.898 450.307 256.514 448.459 256.514H425.975C422.587 256.514 419.969 255.128 418.275 252.048L402.413 224.174H394.559V250.97C394.559 254.666 392.711 256.514 389.015 256.514H366.839C363.143 256.514 361.295 254.666 361.295 250.97V153.026C361.295 149.33 363.143 147.482 366.839 147.482ZM503.073 212.162H521.707L512.929 180.438H512.467L503.073 212.162ZM498.761 147.482H526.481C529.715 147.482 531.871 149.176 533.103 152.41L564.981 249.892C565.597 251.894 565.597 253.434 564.827 254.666C563.903 255.898 562.671 256.514 560.823 256.514H537.415C533.719 256.514 531.563 254.82 530.639 251.432L527.251 239.574H497.837L494.603 251.432C493.679 254.82 491.369 256.514 487.827 256.514H464.419C462.571 256.514 461.185 255.898 460.415 254.666C459.491 253.434 459.491 251.894 460.261 249.892L492.139 152.41C493.217 149.176 495.373 147.482 498.761 147.482ZM626.222 229.41C631.304 229.41 636.386 228.486 641.468 226.33C643.47 225.56 645.01 225.406 646.242 225.714C647.474 226.022 648.398 227.1 649.322 228.794L655.79 242.654C656.406 244.502 656.56 246.042 656.252 246.966C655.79 247.89 654.712 248.968 653.018 250.046C644.702 255.59 633.922 258.362 620.678 258.362C604.2 258.362 591.418 253.896 582.178 244.656C572.938 235.416 568.318 221.248 568.318 201.998C568.318 182.748 572.784 168.58 581.87 159.34C590.802 150.254 603.584 145.634 619.908 145.634C632.844 145.634 643.47 148.406 651.786 153.796C653.48 155.028 654.558 156.106 655.02 157.03C655.328 157.954 655.174 159.34 654.558 161.188L648.244 174.894C647.474 176.742 646.55 177.82 645.318 178.128C644.086 178.436 642.392 178.282 640.39 177.358C635.77 175.51 630.842 174.586 625.606 174.586C617.136 174.586 611.13 176.742 607.588 180.746C604.046 184.904 602.352 191.988 602.352 201.998C602.352 212.008 604.2 219.092 607.896 223.25C611.592 227.408 617.598 229.41 626.222 229.41ZM702.415 184.904L725.053 152.564C727.363 149.176 730.135 147.482 733.215 147.482H757.239C759.087 147.482 760.165 148.252 760.781 149.638C761.397 151.178 761.089 152.718 759.857 154.412L728.287 198.456L760.627 249.584C761.705 251.432 762.013 252.972 761.397 254.358C760.781 255.898 759.549 256.514 757.701 256.514H733.677C730.443 256.514 727.825 254.82 725.823 251.432L702.415 213.856V250.97C702.415 254.666 700.567 256.514 696.871 256.514H674.387C670.691 256.514 668.843 254.666 668.843 250.97V153.026C668.843 149.33 670.691 147.482 674.387 147.482H696.871C700.567 147.482 702.415 149.33 702.415 153.026V184.904ZM839.016 214.472H804.366V228.794H842.25C845.946 228.794 847.794 230.642 847.794 234.338V250.97C847.794 254.666 845.946 256.514 842.25 256.514H776.954C773.258 256.514 771.41 254.666 771.41 250.97V153.026C771.41 149.33 773.258 147.482 776.954 147.482H841.326C845.022 147.482 846.87 149.33 846.87 153.026V169.658C846.87 173.354 845.022 175.202 841.326 175.202H804.366V187.984H839.016C842.558 187.984 844.406 189.832 844.406 193.528V209.082C844.406 212.778 842.558 214.472 839.016 214.472ZM894.307 197.994H905.395C910.169 197.994 913.557 197.07 915.713 195.222C917.869 193.374 918.947 190.602 918.947 186.598C918.947 182.286 917.869 179.206 915.867 177.666C913.711 176.126 910.323 175.202 905.395 175.202H894.307V197.994ZM866.587 147.482H905.857C921.257 147.482 932.961 150.562 940.815 156.568C948.515 162.574 952.519 172.584 952.519 186.598C952.519 202.152 945.897 212.932 932.807 219.092L951.287 249.584C952.365 251.432 952.673 253.126 952.057 254.512C951.441 255.898 950.055 256.514 948.207 256.514H925.723C922.335 256.514 919.717 255.128 918.023 252.048L902.161 224.174H894.307V250.97C894.307 254.666 892.459 256.514 888.763 256.514H866.587C862.891 256.514 861.043 254.666 861.043 250.97V153.026C861.043 149.33 862.891 147.482 866.587 147.482Z" fill="white"/>
<path d="M20.834 89.0031C20.3281 85.6871 20.3281 82.3135 20.834 78.9975C22.053 71.0869 25.8758 65.778 28.834 61.6698C32.2033 56.9751 36.3163 52.8621 41.011 49.4928C45.3816 46.4734 50.1445 44.0657 55.1674 42.3364C60.7764 40.2109 66.5827 38.6477 72.5007 37.6697C79.3277 36.4712 86.2372 35.8025 93.1674 35.6697C94.3688 35.6233 93.5332 35.6665 113.837 35.6697C118.725 35.6705 123.613 35.6705 128.501 35.6697H225.507" stroke="#31AF99" stroke-width="26" stroke-miterlimit="10" stroke-linecap="round"/>
<path d="M122.5 140.003V38.3061" stroke="#31AF99" stroke-width="26" stroke-miterlimit="10" stroke-linecap="round"/>
<path d="M13.5 196.342C15.2409 198.641 17.7079 201.772 20.8334 205.342C25.4282 210.839 30.5041 215.915 36.001 220.51C42.1588 225.461 50.4537 232.131 62.8334 234.342C71.2961 235.854 77.9922 234.625 83.1667 233.676C92.3861 231.829 101.195 228.328 109.167 223.342C115.197 219.635 119.713 215.487 128.5 207.342C134.998 201.319 137.151 198.863 148.268 187.574C148.272 187.57 148.266 187.576 173.068 162.774C180.047 155.796 187.025 148.817 194.004 141.838L209.921 125.921" stroke="#31AF99" stroke-width="26" stroke-miterlimit="10" stroke-linecap="round"/>
</g>
<defs>
<clipPath id="clip0_12_2">
<rect width="957.099" height="300.179" fill="white" transform="translate(0.5)"/>
</clipPath>
</defs>
</svg>
